<?xml version="1.0" encoding="UTF-8"?>
<svg id="Calque_1" xmlns="http://www.w3.org/2000/svg" version="1.1" viewBox="0 0 48 48">
  <!-- Generator: Adobe Illustrator 29.2.0, SVG Export Plug-In . SVG Version: 2.1.0 Build 108)  -->
  <defs>
    <style>
      .st0 {
        fill: #fff;
      }
    </style>
  </defs>
  <path class="st0" d="M24,34.6c2.4,0,4.4-.8,6.1-2.5s2.5-3.7,2.5-6.1-.8-4.4-2.5-6.1-3.7-2.4-6.1-2.4-4.4.8-6.1,2.4-2.4,3.6-2.4,6.1.8,4.4,2.4,6.1,3.6,2.5,6.1,2.5ZM24,31.6c-1.6,0-2.9-.5-3.9-1.6s-1.6-2.4-1.6-4,.5-2.9,1.6-3.9c1-1,2.3-1.6,3.9-1.6s2.9.5,4,1.6c1.1,1,1.6,2.3,1.6,3.9s-.5,2.9-1.6,4-2.4,1.6-4,1.6ZM7,42c-.8,0-1.5-.3-2.1-.9s-.9-1.3-.9-2.1V13.3c0-.8.3-1.5.9-2.1s1.3-.9,2.1-.9h7.4l3.7-4.4h12l3.7,4.4h7.4c.8,0,1.5.3,2.1.9s.9,1.3.9,2.1v25.7c0,.8-.3,1.5-.9,2.1s-1.3.9-2.1.9H7ZM7,39h34V13.3h-8.8l-3.7-4.4h-9.2l-3.7,4.4H7v25.7Z"/>
</svg>